<svg width="1440" height="1008" viewBox="0 0 1440 1008" fill="none" xmlns="http://www.w3.org/2000/svg">
<rect width="1440" height="1008" fill="white"/>
<rect x="68" y="122" width="687" height="703" rx="343.5" fill="url(#paint0_linear)" fill-opacity="0.42"/>
<g clip-path="url(#clip0)">
<path d="M331.504 672.273C333.386 674.182 335.696 675.541 338.212 676.22C340.729 676.898 343.366 676.873 345.871 676.147C352.29 674.201 356.646 668.015 360.513 662.206L371.954 645.027L362.312 646.916C355.377 648.274 348.272 649.7 342.233 653.586C336.194 657.472 331.358 664.41 331.74 671.928" fill="#E6E6E6"/>
<path d="M322.542 695.413C324.233 689.255 325.934 683.012 328.919 677.399C331.571 672.414 335.194 668.041 339.974 665.321C342.509 663.882 345.26 662.926 348.103 662.497C348.844 662.385 348.965 663.617 348.227 663.729C343.305 664.48 338.734 666.882 335.172 670.587C331.223 674.713 328.633 680.033 326.719 685.509C325.559 688.82 324.624 692.211 323.693 695.603C323.665 695.763 323.581 695.906 323.458 696.002C323.335 696.099 323.182 696.141 323.031 696.121C322.879 696.095 322.743 696.007 322.652 695.874C322.561 695.742 322.522 695.576 322.545 695.414L322.542 695.413Z" fill="#F2F2F2"/>
<path d="M508.734 447.374C509.833 447.091 510.976 447.069 512.084 447.309C513.192 447.549 514.237 448.046 515.146 448.764C516.054 449.483 516.804 450.405 517.343 451.467C517.882 452.528 518.196 453.703 518.264 454.908L544.716 462.851L533.923 472.837L510.458 463.763C508.555 463.75 506.722 462.992 505.307 461.633C503.892 460.273 502.993 458.406 502.781 456.386C502.568 454.366 503.057 452.333 504.154 450.672C505.251 449.011 506.881 447.837 508.734 447.374L508.734 447.374Z" fill="#FFB7B7"/>
<path d="M576.709 687.964L568.998 687.964L565.33 656.196L576.711 656.197L576.709 687.964Z" fill="#FFB7B7"/>
<path d="M578.675 695.948L553.813 695.947V695.611C553.814 692.87 554.833 690.241 556.648 688.302C558.463 686.364 560.924 685.275 563.49 685.275H563.491L578.676 685.275L578.675 695.948Z" fill="#2F2E41"/>
<path d="M621.891 687.964L614.18 687.964L610.512 656.196L621.891 656.197L621.891 687.964Z" fill="#FFB7B7"/>
<path d="M623.857 695.948L598.995 695.947V695.611C598.995 692.87 600.014 690.241 601.829 688.302C603.644 686.364 606.105 685.275 608.672 685.275H608.672L623.857 685.275L623.857 695.948Z" fill="#2F2E41"/>
<path d="M570.409 505.633L559.051 589.667L561.881 678.205L578.937 679.656L584.27 600.254L597.846 555.98L605.828 619.093L606.156 678.205L623.768 679.656L629.91 555.379L625.392 501.331L570.409 505.633Z" fill="#2F2E41"/>
<path d="M603.26 393.122C613.183 393.122 621.228 384.529 621.228 373.929C621.228 363.33 613.183 354.737 603.26 354.737C593.336 354.737 585.292 363.33 585.292 373.929C585.292 384.529 593.336 393.122 603.26 393.122Z" fill="#FFB7B7"/>
<path d="M592.185 403.561L572.349 510.305C572.349 510.305 605.746 520.543 620.376 511.091C635.007 501.64 628.451 472.461 628.451 472.461L625.771 422.812L620.82 410.256L616.618 399.892L592.185 403.561Z" fill="#CBCBCB"/>
<path d="M586.379 479.331L593.231 401.489L587.751 405.763L568.59 412.41L567.279 467.213L553.876 539.28C553.876 539.28 563.456 559.248 575.329 526.213L586.379 479.331Z" fill="#2F2E41"/>
<path d="M577.812 420.606L568.591 412.409L547.866 460.498L524.739 455.087L523.647 469.676L557.154 483.841L579.988 449.885L577.812 420.606Z" fill="#2F2E41"/>
<path d="M613.685 462.292L616.267 398.94L625.771 406.801L642.744 411.855L640.255 462.292L643.837 540.555L626.042 546.575L621.047 497.191L613.685 462.292Z" fill="#2F2E41"/>
<path d="M614.827 513.29C615.026 512.101 615.466 510.974 616.118 509.987C616.769 509 617.615 508.177 618.595 507.577C619.576 506.977 620.669 506.614 621.795 506.514C622.922 506.413 624.055 506.578 625.115 506.996L642.555 484.314L646.777 498.884L629.57 518.189C628.794 520.046 627.408 521.534 625.674 522.372C623.94 523.209 621.978 523.338 620.161 522.734C618.344 522.13 616.797 520.835 615.814 519.095C614.831 517.354 614.479 515.289 614.827 513.29V513.29Z" fill="#FFB7B7"/>
<path d="M631.38 418.887L642.744 411.855L671.338 472.169L643.46 513.519L627.559 499.939L646.867 473.045L629.27 444.158L631.38 418.887Z" fill="#2F2E41"/>
<path d="M620.159 358.586L621.03 356.713L616.647 354.387C616.647 354.387 611.812 345.984 603.062 348.345C594.313 350.707 590.376 352.12 590.376 352.12L586.005 354.47L588.199 356.802L584.262 358.215L586.892 359.611L583.832 361.49L585.479 371.12C585.479 371.12 588.215 363.816 593.475 366.607C598.735 369.398 608.355 365.164 608.355 365.164L616.713 382.442C616.713 382.442 618.438 376.385 621.512 378.001C621.512 378.001 629.366 364.64 620.159 358.586Z" fill="#2F2E41"/>
<path d="M511.016 386.744H510.901L445.008 416.798L354.852 457.92C354.499 458.078 354.121 458.16 353.739 458.163C353.357 458.165 352.978 458.086 352.624 457.932L259.61 416.712L192.097 386.793L191.994 386.744H191.879C190.814 386.745 189.792 387.198 189.039 388.002C188.286 388.807 187.862 389.898 187.861 391.035V577.421C187.862 578.558 188.286 579.649 189.039 580.454C189.792 581.259 190.814 581.711 191.879 581.712H511.016C512.081 581.711 513.103 581.259 513.856 580.454C514.609 579.649 515.033 578.558 515.034 577.421V391.035C515.033 389.898 514.609 388.807 513.856 388.002C513.103 387.198 512.081 386.745 511.016 386.744V386.744Z" fill="white"/>
<path d="M511.303 387.97C511.186 387.97 511.071 387.932 510.975 387.86L352.234 269.773C351.751 269.415 351.177 269.224 350.589 269.225C350.001 269.226 349.427 269.42 348.946 269.779L191.348 387.859C191.223 387.952 191.069 387.989 190.919 387.96C190.769 387.932 190.636 387.842 190.548 387.709C190.461 387.575 190.427 387.411 190.453 387.251C190.479 387.091 190.564 386.948 190.688 386.855L348.286 268.775C348.961 268.272 349.764 268.001 350.587 268C351.41 267.999 352.213 268.266 352.89 268.767L511.631 386.854C511.731 386.928 511.807 387.035 511.846 387.159C511.886 387.282 511.887 387.416 511.851 387.541C511.814 387.665 511.741 387.774 511.643 387.851C511.544 387.928 511.425 387.97 511.303 387.97L511.303 387.97Z" fill="#3F3D56"/>
<path d="M200.353 392.156L350.744 273.101L502.278 400.627L358.493 491.674L280.431 472.668L200.353 392.156Z" fill="#E6E6E6"/>
<path d="M287.021 547.909H212.723C212.267 547.911 211.815 547.816 211.393 547.631C210.971 547.445 210.588 547.173 210.264 546.829C209.941 546.485 209.684 546.077 209.509 545.627C209.334 545.177 209.243 544.695 209.242 544.207C209.242 543.72 209.331 543.237 209.505 542.787C209.679 542.336 209.935 541.927 210.257 541.582C210.579 541.237 210.962 540.964 211.384 540.777C211.805 540.59 212.257 540.494 212.713 540.494H287.021C287.477 540.493 287.929 540.587 288.351 540.773C288.773 540.958 289.156 541.231 289.48 541.574C289.803 541.918 290.06 542.327 290.235 542.777C290.41 543.227 290.501 543.709 290.502 544.196C290.502 544.684 290.413 545.166 290.239 545.617C290.065 546.067 289.809 546.477 289.487 546.821C289.164 547.166 288.782 547.44 288.36 547.627C287.939 547.813 287.487 547.909 287.031 547.909H287.021Z" fill="#6C63FF"/>
<path d="M239.38 531.969H212.723C212.267 531.97 211.815 531.875 211.393 531.69C210.971 531.505 210.588 531.232 210.264 530.888C209.941 530.544 209.684 530.136 209.509 529.686C209.334 529.236 209.243 528.754 209.242 528.266C209.242 527.779 209.331 527.296 209.505 526.846C209.679 526.395 209.935 525.986 210.257 525.641C210.579 525.296 210.962 525.023 211.384 524.836C211.805 524.649 212.257 524.553 212.713 524.553H239.38C240.299 524.553 241.182 524.943 241.832 525.637C242.483 526.331 242.85 527.273 242.851 528.255C242.852 529.238 242.489 530.181 241.84 530.877C241.191 531.573 240.31 531.966 239.39 531.969H239.38Z" fill="#6C63FF"/>
<path d="M352.86 458.468C352.295 458.469 351.736 458.352 351.213 458.124L258.462 417.015V288.34C258.463 287.202 258.887 286.111 259.64 285.306C260.393 284.502 261.414 284.049 262.48 284.048H440.416C441.481 284.049 442.502 284.502 443.256 285.306C444.009 286.111 444.432 287.202 444.434 288.34V417.105L444.259 417.185L354.556 458.103C354.019 458.345 353.442 458.469 352.86 458.468V458.468Z" fill="#6C63FF"/>
<path d="M510.155 386.744H510.04L444.147 416.798L353.99 457.92C353.638 458.078 353.26 458.16 352.878 458.163C352.496 458.165 352.117 458.086 351.763 457.932L258.749 416.712L191.236 386.793L191.133 386.744H191.018C189.953 386.745 188.931 387.198 188.178 388.002C187.425 388.807 187.001 389.898 187 391.035V577.421C187.001 578.558 187.425 579.649 188.178 580.454C188.931 581.259 189.953 581.711 191.018 581.712H510.155C511.22 581.711 512.242 581.259 512.995 580.454C513.748 579.649 514.172 578.558 514.173 577.421V391.035C514.172 389.898 513.748 388.807 512.995 388.002C512.242 387.198 511.22 386.745 510.155 386.744ZM513.025 577.421C513.025 578.234 512.722 579.013 512.184 579.588C511.646 580.163 510.916 580.486 510.155 580.486H191.018C190.257 580.486 189.527 580.163 188.989 579.588C188.451 579.013 188.148 578.234 188.148 577.421V391.035C188.149 390.243 188.437 389.481 188.951 388.91C189.466 388.339 190.167 388.002 190.909 387.97L258.749 418.037L351.321 459.066C352.323 459.502 353.446 459.495 354.444 459.048L444.147 418.129L510.27 387.97C511.01 388.004 511.71 388.342 512.223 388.913C512.736 389.484 513.023 390.244 513.025 391.036L513.025 577.421Z" fill="#3F3D56"/>
<path d="M338.42 332.147H275.281C274.065 332.145 272.899 331.627 272.039 330.708C271.18 329.788 270.697 328.542 270.697 327.242C270.697 325.943 271.18 324.697 272.039 323.777C272.899 322.858 274.065 322.34 275.281 322.337H338.42C339.636 322.34 340.802 322.858 341.662 323.777C342.521 324.697 343.004 325.943 343.004 327.242C343.004 328.542 342.521 329.788 341.662 330.708C340.802 331.627 339.636 332.145 338.42 332.147V332.147Z" fill="white"/>
<path d="M305.703 311.302H275.281C274.063 311.302 272.895 310.785 272.034 309.865C271.173 308.945 270.689 307.698 270.689 306.397C270.689 305.096 271.173 303.848 272.034 302.928C272.895 302.009 274.063 301.492 275.281 301.492H305.703C306.92 301.492 308.088 302.009 308.949 302.928C309.811 303.848 310.294 305.096 310.294 306.397C310.294 307.698 309.811 308.945 308.949 309.865C308.088 310.785 306.92 311.302 305.703 311.302V311.302Z" fill="white"/>
<path d="M398.671 381.196H302.241C301.023 381.196 299.855 380.679 298.994 379.759C298.132 378.84 297.649 377.592 297.649 376.291C297.649 374.99 298.132 373.743 298.994 372.823C299.855 371.903 301.023 371.386 302.241 371.386H398.671C399.888 371.386 401.056 371.903 401.917 372.823C402.779 373.743 403.262 374.99 403.262 376.291C403.262 377.592 402.779 378.84 401.917 379.759C401.056 380.679 399.888 381.196 398.671 381.196V381.196Z" fill="white"/>
<path d="M398.671 403.881H302.241C301.637 403.882 301.039 403.756 300.481 403.51C299.923 403.264 299.416 402.903 298.988 402.447C298.561 401.992 298.222 401.451 297.991 400.855C297.76 400.259 297.641 399.621 297.641 398.976C297.641 398.331 297.76 397.693 297.991 397.097C298.222 396.501 298.561 395.96 298.988 395.505C299.416 395.049 299.923 394.688 300.481 394.442C301.039 394.196 301.637 394.07 302.241 394.071H398.671C399.274 394.07 399.872 394.196 400.43 394.442C400.988 394.688 401.495 395.049 401.923 395.505C402.35 395.96 402.689 396.501 402.92 397.097C403.151 397.693 403.271 398.331 403.271 398.976C403.271 399.621 403.151 400.259 402.92 400.855C402.689 401.451 402.35 401.992 401.923 402.447C401.495 402.903 400.988 403.264 400.43 403.51C399.872 403.756 399.274 403.882 398.671 403.881V403.881Z" fill="white"/>
<path d="M679.3 696.723H495.077C494.891 696.723 494.713 696.644 494.582 696.504C494.45 696.363 494.377 696.173 494.377 695.975C494.377 695.776 494.45 695.586 494.582 695.446C494.713 695.305 494.891 695.226 495.077 695.226H679.3C679.485 695.226 679.663 695.305 679.795 695.446C679.926 695.586 680 695.776 680 695.975C680 696.173 679.926 696.363 679.795 696.504C679.663 696.644 679.485 696.723 679.3 696.723Z" fill="#CBCBCB"/>
<path d="M357.786 696.723H289.84C289.655 696.723 289.477 696.644 289.345 696.504C289.214 696.363 289.14 696.173 289.14 695.975C289.14 695.776 289.214 695.586 289.345 695.446C289.477 695.305 289.655 695.226 289.84 695.226H357.786C357.971 695.226 358.15 695.305 358.281 695.446C358.412 695.586 358.486 695.776 358.486 695.975C358.486 696.173 358.412 696.363 358.281 696.504C358.15 696.644 357.971 696.723 357.786 696.723Z" fill="#CBCBCB"/>
<path d="M314.824 673.59C317.418 673.526 319.954 672.75 322.186 671.336C324.418 669.922 326.271 667.917 327.568 665.516C330.834 659.301 329.839 651.633 328.746 644.602L325.517 623.804L319.927 632.406C315.907 638.592 311.81 644.955 310.094 652.259C308.378 659.563 309.529 668.125 314.764 673.168" fill="#E6E6E6"/>
<path d="M323.746 696.748C320.879 691.108 317.964 685.4 316.375 679.172C314.964 673.64 314.646 667.81 316.24 662.282C317.087 659.351 318.407 656.602 320.139 654.156C320.591 653.518 321.49 654.301 321.04 654.936C318.047 659.176 316.391 664.322 316.311 669.632C316.236 675.532 317.912 681.255 320.169 686.58C321.532 689.8 323.108 692.91 324.687 696.016C324.773 696.15 324.808 696.315 324.784 696.476C324.761 696.637 324.68 696.782 324.56 696.882C324.435 696.978 324.28 697.018 324.128 696.992C323.976 696.967 323.84 696.879 323.748 696.746L323.746 696.748Z" fill="#F2F2F2"/>
</g>
<defs>
<linearGradient id="paint0_linear" x1="549" y1="825" x2="199" y2="179.5" gradientUnits="userSpaceOnUse">
<stop stop-color="#0062CC"/>
<stop offset="0.509095" stop-color="#0062CC"/>
<stop offset="1" stop-color="#0062CC" stop-opacity="0"/>
</linearGradient>
<clipPath id="clip0">
<rect width="493" height="429" fill="white" transform="translate(187 268)"/>
</clipPath>
</defs>
</svg>
