<svg width="871" height="821" viewBox="0 0 871 821" fill="none" xmlns="http://www.w3.org/2000/svg">
<path d="M478.896 60.3489C478.896 176.894 179.225 185.229 31 185.229C885.593 -120.612 53.7275 176.894 53.7275 60.3489C53.7275 -56.1964 929.147 599.761 832.622 731C980.847 731 478.896 -56.1964 478.896 60.3489Z" fill="#EBEBEB"/>
<path d="M-6.84777e-06 736.621C-6.84777e-06 717.86 494.252 715.862 288.353 409C457.872 409 561.931 802.239 561.931 821C529.521 281.633 814.537 460.849 736.372 449.904C566.853 449.904 -6.84777e-06 755.382 -6.84777e-06 736.621Z" fill="#E6E6E6"/>
<g clip-path="url(#clip0)" filter="url(#filter0_di)">
<path d="M391.947 636.829H43.5443C39.158 636.824 34.9527 635.045 31.8512 631.884C28.7496 628.723 27.0049 624.436 27 619.966V137.88C27.0049 133.41 28.7496 129.123 31.8512 125.962C34.9527 122.801 39.158 121.022 43.5443 121.017H391.947C396.334 121.022 400.539 122.801 403.641 125.962C406.742 129.123 408.487 133.41 408.492 137.88V619.966C408.487 624.436 406.742 628.723 403.641 631.884C400.539 635.045 396.334 636.824 391.947 636.829V636.829Z" fill="white"/>
<path d="M202.04 246.481C202.04 260.404 197.719 273.971 189.694 285.239C181.67 296.506 170.355 304.898 157.367 309.212C156.979 309.338 156.59 309.464 156.196 309.584C154.514 310.111 152.808 310.561 151.072 310.945C147.932 311.639 144.744 312.09 141.536 312.294C140.143 312.39 138.741 312.438 137.33 312.438C130.045 312.445 122.811 311.196 115.935 308.744C115.735 308.672 115.535 308.6 115.341 308.528C104.2 304.427 94.3765 297.287 86.9419 287.888C79.5072 278.488 74.7464 267.189 73.1781 255.221C71.6097 243.253 73.2942 231.077 78.0478 220.017C82.8013 208.958 90.4417 199.441 100.136 192.503C109.831 185.565 121.208 181.472 133.028 180.671C144.847 179.869 156.656 182.389 167.167 187.957C177.678 193.525 186.488 201.926 192.637 212.246C198.786 222.565 202.039 234.408 202.04 246.481V246.481Z" fill="white"/>
<path d="M135.78 290.18C153.168 290.18 167.264 275.813 167.264 258.09C167.264 240.367 153.168 226 135.78 226C118.392 226 104.297 240.367 104.297 258.09C104.297 275.813 118.392 290.18 135.78 290.18Z" fill="#536DFE"/>
<path d="M137.618 275.38L137.651 274.181C135.462 274.119 133.532 273.979 132.082 272.899C131.671 272.576 131.333 272.166 131.092 271.697C130.85 271.229 130.71 270.712 130.682 270.184C130.656 269.861 130.704 269.536 130.822 269.235C130.939 268.934 131.123 268.665 131.36 268.448C131.908 268.11 132.535 267.928 133.175 267.922C133.816 267.917 134.446 268.087 135 268.416L135.973 268.87L134.107 254.965L132.941 255.128L134.529 266.956C133.879 266.711 133.179 266.634 132.493 266.735C131.806 266.836 131.156 267.11 130.6 267.533C130.227 267.865 129.933 268.281 129.743 268.749C129.554 269.216 129.472 269.721 129.506 270.226C129.54 270.936 129.727 271.63 130.052 272.259C130.377 272.888 130.833 273.437 131.388 273.868C133.251 275.255 135.673 275.324 137.618 275.38Z" fill="#2F2E41"/>
<path d="M127.176 256.148H120.84V257.347H127.176V256.148Z" fill="#2F2E41"/>
<path d="M147.177 256.148H140.841V257.347H147.177V256.148Z" fill="#2F2E41"/>
<path d="M144.725 302.952C144.808 302.558 144.852 302.156 144.854 301.753C144.852 300.243 144.263 298.795 143.215 297.728C142.167 296.66 140.747 296.059 139.266 296.057H131.03C129.548 296.058 128.128 296.659 127.08 297.726C126.032 298.794 125.443 300.243 125.442 301.753C125.441 302.158 125.485 302.562 125.571 302.958C122.462 303.956 119.523 305.439 116.859 307.353C116.341 307.719 115.829 308.115 115.341 308.528C115.535 308.6 115.735 308.672 115.935 308.744C122.811 311.196 130.045 312.445 137.33 312.438C138.742 312.438 140.144 312.39 141.536 312.294C144.744 312.09 147.932 311.639 151.072 310.945C152.808 310.561 154.514 310.111 156.196 309.584C152.868 306.582 148.96 304.324 144.725 302.952V302.952Z" fill="#2F2E41"/>
<path d="M143.666 311.532C142.903 311.59 142.168 311.853 141.537 312.294C144.744 312.09 147.932 311.639 151.072 310.945L143.666 311.532Z" fill="#2F2E41"/>
<path d="M164.334 250.467L109.64 230.073C109.054 229.854 108.577 229.407 108.314 228.83C108.052 228.253 108.024 227.594 108.239 226.996L108.424 226.105C112.695 214.204 126.853 206.714 138.529 211.067L155.36 217.343C167.036 221.697 172.11 235.789 167.839 247.69L167.352 249.038C167.138 249.636 166.699 250.122 166.133 250.39C165.567 250.658 164.92 250.685 164.334 250.467V250.467Z" fill="#2F2E41"/>
<path d="M167.28 251.598C91.0478 254.465 84.3867 244.702 107.614 229.35L112.542 220.109L169.015 241.095L167.28 251.598Z" fill="#2F2E41"/>
<path d="M152.332 215.879C152.753 214.452 150.95 212.639 148.306 211.828C145.661 211.018 143.176 211.518 142.755 212.945C142.334 214.372 144.137 216.186 146.782 216.996C149.426 217.807 151.911 217.307 152.332 215.879Z" fill="#2F2E41"/>
<path d="M137.33 314.237C129.847 314.245 122.415 312.962 115.352 310.442L114.738 310.219C99.9414 304.769 87.5214 294.146 79.6862 280.24C71.851 266.335 69.1086 250.047 71.9467 234.274C74.7848 218.502 83.0194 204.266 95.1861 194.099C107.353 183.933 122.663 178.494 138.393 178.75C154.124 179.007 169.256 184.942 181.097 195.5C192.939 206.058 200.722 220.555 203.064 236.412C205.406 252.269 202.154 268.459 193.887 282.102C185.619 295.745 172.872 305.958 157.913 310.923C157.494 311.058 157.101 311.186 156.701 311.307C155.03 311.831 153.258 312.302 151.446 312.702C148.218 313.416 144.942 313.879 141.645 314.089C140.229 314.187 138.773 314.237 137.33 314.237ZM137.33 182.324C122.519 182.326 108.182 187.651 96.8415 197.363C85.5013 207.076 77.8839 220.552 75.3292 235.423C72.7745 250.294 75.4461 265.607 82.874 278.669C90.3019 291.731 102.01 301.705 115.94 306.836L116.523 307.048C123.21 309.433 130.246 310.647 137.33 310.639C138.694 310.639 140.069 310.592 141.417 310.499C144.539 310.301 147.642 309.862 150.699 309.187C152.412 308.808 154.087 308.363 155.677 307.865C156.071 307.745 156.445 307.623 156.818 307.502C171.066 302.772 183.192 293.017 191.015 279.99C198.838 266.963 201.846 251.519 199.497 236.434C197.149 221.349 189.598 207.613 178.203 197.695C166.808 187.776 152.315 182.326 137.33 182.324V182.324Z" fill="#CCCCCC"/>
<path d="M391.947 636.829H43.5443C39.158 636.824 34.9527 635.045 31.8512 631.884C28.7496 628.723 27.0049 624.436 27 619.966V137.88C27.0049 133.41 28.7496 129.123 31.8512 125.962C34.9527 122.801 39.158 121.022 43.5443 121.017H391.947C396.334 121.022 400.539 122.801 403.641 125.962C406.742 129.123 408.487 133.41 408.492 137.88V619.966C408.487 624.436 406.742 628.723 403.641 631.884C400.539 635.045 396.334 636.824 391.947 636.829V636.829ZM43.5443 123.001C39.674 123.006 35.9636 124.575 33.2269 127.364C30.4902 130.154 28.9508 133.936 28.9464 137.88V619.966C28.9508 623.91 30.4902 627.692 33.2268 630.482C35.9635 633.271 39.674 634.84 43.5443 634.845H391.947C395.818 634.84 399.528 633.271 402.265 630.482C405.002 627.692 406.541 623.91 406.545 619.966V137.88C406.541 133.936 405.002 130.154 402.265 127.364C399.528 124.575 395.818 123.006 391.947 123.001H43.5443Z" fill="#CCCCCC"/>
<path d="M324.501 246.225H225.915C223.848 246.222 221.867 245.383 220.406 243.893C218.945 242.402 218.125 240.382 218.125 238.275C218.125 236.168 218.945 234.148 220.406 232.657C221.867 231.167 223.848 230.328 225.915 230.326H324.501C325.526 230.324 326.541 230.529 327.488 230.928C328.436 231.327 329.297 231.912 330.022 232.65C330.747 233.389 331.323 234.266 331.715 235.231C332.108 236.196 332.31 237.23 332.31 238.275C332.31 239.32 332.108 240.354 331.715 241.32C331.323 242.285 330.747 243.162 330.022 243.9C329.297 244.638 328.436 245.223 327.488 245.622C326.541 246.021 325.526 246.226 324.501 246.225V246.225Z" fill="#E6E6E6"/>
<path d="M356.673 273.054H225.915C223.848 273.052 221.867 272.213 220.406 270.723C218.945 269.232 218.125 267.212 218.125 265.105C218.125 262.998 218.945 260.978 220.406 259.487C221.867 257.997 223.848 257.158 225.915 257.155H356.673C358.74 257.158 360.721 257.997 362.181 259.487C363.642 260.978 364.462 262.998 364.462 265.105C364.462 267.212 363.642 269.232 362.181 270.723C360.721 272.213 358.74 273.052 356.673 273.054V273.054Z" fill="#E6E6E6"/>
<path d="M324.357 375.958H78.819C77.7939 375.959 76.7787 375.754 75.8313 375.355C74.884 374.957 74.023 374.371 73.2978 373.633C72.5725 372.895 71.9972 372.018 71.6046 371.053C71.212 370.087 71.01 369.053 71.01 368.008C71.01 366.963 71.212 365.929 71.6046 364.964C71.9972 363.999 72.5725 363.122 73.2978 362.383C74.023 361.645 74.884 361.06 75.8313 360.661C76.7787 360.262 77.7939 360.057 78.819 360.059H324.357C326.424 360.061 328.405 360.9 329.866 362.39C331.326 363.881 332.147 365.902 332.147 368.008C332.147 370.115 331.326 372.135 329.866 373.626C328.405 375.116 326.424 375.955 324.357 375.958V375.958Z" fill="#E6E6E6"/>
<path d="M356.529 402.788H78.819C77.7939 402.789 76.7787 402.584 75.8313 402.185C74.884 401.786 74.023 401.201 73.2978 400.463C72.5725 399.724 71.9972 398.847 71.6046 397.882C71.212 396.917 71.01 395.883 71.01 394.838C71.01 393.793 71.212 392.759 71.6046 391.794C71.9972 390.828 72.5725 389.952 73.2978 389.213C74.023 388.475 74.884 387.89 75.8313 387.491C76.7787 387.092 77.7939 386.887 78.819 386.888H356.529C357.554 386.887 358.57 387.092 359.517 387.491C360.464 387.89 361.325 388.475 362.05 389.213C362.776 389.952 363.351 390.828 363.744 391.794C364.136 392.759 364.338 393.793 364.338 394.838C364.338 395.883 364.136 396.917 363.744 397.882C363.351 398.847 362.776 399.724 362.05 400.463C361.325 401.201 360.464 401.786 359.517 402.185C358.57 402.584 357.554 402.789 356.529 402.788V402.788Z" fill="#E6E6E6"/>
<path d="M324.357 464.453H78.819C76.7505 464.453 74.7667 463.615 73.304 462.124C71.8414 460.633 71.0197 458.611 71.0197 456.503C71.0197 454.395 71.8414 452.373 73.304 450.882C74.7667 449.391 76.7505 448.553 78.819 448.553H324.357C326.426 448.553 328.41 449.391 329.872 450.882C331.335 452.373 332.157 454.395 332.157 456.503C332.157 458.611 331.335 460.633 329.872 462.124C328.41 463.615 326.426 464.453 324.357 464.453V464.453Z" fill="#E6E6E6"/>
<path d="M356.529 491.282H78.819C76.7505 491.282 74.7667 490.445 73.304 488.954C71.8414 487.463 71.0197 485.441 71.0197 483.333C71.0197 481.224 71.8414 479.202 73.304 477.712C74.7667 476.221 76.7505 475.383 78.819 475.383H356.529C358.598 475.383 360.582 476.221 362.044 477.712C363.507 479.202 364.329 481.224 364.329 483.333C364.329 485.441 363.507 487.463 362.044 488.954C360.582 490.445 358.598 491.282 356.529 491.282V491.282Z" fill="#E6E6E6"/>
<path d="M324.357 552.947H78.819C76.7505 552.947 74.7667 552.11 73.304 550.619C71.8414 549.128 71.0197 547.106 71.0197 544.998C71.0197 542.89 71.8414 540.868 73.304 539.377C74.7667 537.886 76.7505 537.048 78.819 537.048H324.357C326.426 537.048 328.41 537.886 329.872 539.377C331.335 540.868 332.157 542.89 332.157 544.998C332.157 547.106 331.335 549.128 329.872 550.619C328.41 552.11 326.426 552.947 324.357 552.947V552.947Z" fill="#E6E6E6"/>
<path d="M356.529 579.777H78.819C76.7505 579.777 74.7667 578.94 73.304 577.449C71.8414 575.958 71.0197 573.936 71.0197 571.828C71.0197 569.719 71.8414 567.697 73.304 566.206C74.7667 564.716 76.7505 563.878 78.819 563.878H356.529C358.598 563.878 360.582 564.716 362.044 566.206C363.507 567.697 364.329 569.719 364.329 571.828C364.329 573.936 363.507 575.958 362.044 577.449C360.582 578.94 358.598 579.777 356.529 579.777V579.777Z" fill="#E6E6E6"/>
<path d="M845.456 515.811L497.053 515.812C492.666 515.807 488.461 514.028 485.359 510.867C482.258 507.706 480.513 503.419 480.508 498.949L480.508 16.8634C480.513 12.3925 482.257 8.10628 485.359 4.94493C488.461 1.78358 492.666 0.00531393 497.052 0.000279096L845.455 0C849.842 0.00502837 854.047 1.78327 857.148 4.94462C860.25 8.10596 861.995 12.3922 862 16.8631L862 498.948C861.995 503.419 860.25 507.705 857.149 510.867C854.047 514.028 849.842 515.806 845.456 515.811V515.811Z" fill="white"/>
<path d="M845.456 515.811L497.053 515.812C492.666 515.807 488.461 514.028 485.359 510.867C482.258 507.706 480.513 503.419 480.508 498.949L480.508 16.8634C480.513 12.3925 482.257 8.10628 485.359 4.94493C488.461 1.78358 492.666 0.00531393 497.052 0.000279096L845.455 0C849.842 0.00502837 854.047 1.78327 857.148 4.94462C860.25 8.10596 861.995 12.3922 862 16.8631L862 498.948C861.995 503.419 860.25 507.705 857.149 510.867C854.047 514.028 849.842 515.806 845.456 515.811V515.811ZM497.052 1.98417C493.182 1.98864 489.471 3.55771 486.735 6.34713C483.998 9.13655 482.459 12.9185 482.454 16.8634L482.455 498.949C482.459 502.893 483.998 506.675 486.735 509.465C489.472 512.254 493.182 513.823 497.053 513.828L845.456 513.827C849.326 513.823 853.036 512.254 855.773 509.465C858.51 506.675 860.049 502.893 860.054 498.948L860.053 16.8631C860.049 12.9182 858.509 9.13625 855.773 6.34683C853.036 3.55741 849.326 1.98836 845.455 1.98389L497.052 1.98417Z" fill="#CCCCCC"/>
<path d="M655.711 124.807C655.711 137.852 651.916 150.604 644.806 161.45C637.696 172.297 627.589 180.751 615.765 185.743C603.941 190.735 590.93 192.041 578.378 189.496C565.825 186.951 554.295 180.669 545.245 171.445C536.196 162.221 530.033 150.469 527.536 137.674C525.039 124.88 526.32 111.619 531.218 99.5666C536.116 87.5147 544.41 77.2137 555.051 69.9663C565.693 62.7189 578.204 58.8507 591.002 58.8506C608.162 58.8562 624.618 65.8069 636.752 78.1749C648.887 90.5429 655.706 107.316 655.711 124.807V124.807Z" fill="white"/>
<path d="M620.909 136.093C620.203 178.275 558.643 178.269 557.942 136.091C558.649 93.9102 620.209 93.9168 620.909 136.093Z" fill="#536DFE"/>
<path d="M588.176 149.186L588.143 147.986C596.252 149.09 597.999 138.847 589.821 142.676L591.688 128.771L592.853 128.934L591.265 140.762C599.876 139.456 596.691 150.384 588.176 149.186Z" fill="#2F2E41"/>
<path d="M604.954 129.954H598.618V131.153H604.954V129.954Z" fill="#2F2E41"/>
<path d="M584.953 129.954H578.617V131.153H584.953V129.954Z" fill="#2F2E41"/>
<path d="M599.632 180.96C600.867 172.463 591.108 174.142 585.943 174.058C585.11 174.061 584.288 174.253 583.537 174.62C582.787 174.988 582.126 175.521 581.603 176.181C581.08 176.842 580.708 177.613 580.514 178.439C580.321 179.264 580.31 180.124 580.484 180.954C576.486 182.213 572.784 184.295 569.607 187.07C582.997 191.829 597.548 191.993 611.038 187.537C607.75 184.527 603.857 182.283 599.632 180.96Z" fill="#2F2E41"/>
<path d="M574.624 120.915C580.459 117.478 587.534 120.115 593.561 121.556C604.996 125.139 621.032 120.653 622.422 106.769C623.869 93.8562 606.54 86.6597 601.001 99.5112L602.613 99.2964C584.65 72.0851 553.402 73.1172 553.607 110.528C553.541 111.684 555.306 111.68 555.372 110.527C554.711 88.4816 569.025 73.4119 589.259 87.5793C593.778 91.1853 597.763 95.4375 601.09 100.204C603.197 102.611 603.655 92.2449 613.741 94.9602C624.841 99.3432 621.219 115.544 611.297 119.1C599.039 125.484 585.762 113.107 573.733 119.361C573.54 119.486 573.401 119.682 573.347 119.909C573.292 120.136 573.327 120.375 573.442 120.577C573.558 120.778 573.746 120.926 573.966 120.989C574.187 121.052 574.422 121.026 574.624 120.915V120.915Z" fill="#2F2E41"/>
<path d="M591.002 192.562C574.291 192.548 558.2 186.114 545.937 174.543C533.675 162.972 526.142 147.114 524.841 130.133C523.54 113.152 528.567 96.2958 538.92 82.9252C549.272 69.5546 564.189 60.6528 580.694 57.9952C597.2 55.3375 614.083 59.1193 627.974 68.5864C641.866 78.0534 651.746 92.51 655.644 109.073C659.542 125.636 657.171 143.087 649.005 157.948C640.839 172.808 627.477 183.984 611.584 189.248C604.938 191.451 597.991 192.57 591.002 192.562ZM591.002 60.6495C578.55 60.6477 566.377 64.4097 556.023 71.4597C545.669 78.5097 537.599 88.5311 532.833 100.256C528.067 111.982 526.82 124.884 529.249 137.332C531.677 149.78 537.673 161.214 546.478 170.189C555.283 179.163 566.501 185.275 578.713 187.75C590.926 190.226 603.585 188.954 615.088 184.097C626.592 179.239 636.424 171.013 643.341 160.459C650.258 149.906 653.948 137.499 653.947 124.807C653.928 107.797 647.29 91.4896 635.49 79.4619C623.689 67.4343 607.69 60.6687 591.002 60.6495V60.6495Z" fill="#CCCCCC"/>
<path d="M778.009 125.207L679.423 125.207C677.354 125.207 675.37 124.37 673.908 122.879C672.445 121.388 671.623 119.366 671.623 117.258C671.623 115.149 672.445 113.127 673.908 111.637C675.37 110.146 677.354 109.308 679.423 109.308L778.009 109.308C780.077 109.308 782.061 110.146 783.524 111.637C784.986 113.127 785.808 115.149 785.808 117.258C785.808 119.366 784.986 121.388 783.524 122.879C782.061 124.37 780.077 125.207 778.009 125.207V125.207Z" fill="#E6E6E6"/>
<path d="M810.181 152.037L679.423 152.037C678.398 152.038 677.382 151.834 676.435 151.435C675.488 151.036 674.627 150.451 673.901 149.712C673.176 148.974 672.601 148.097 672.208 147.132C671.816 146.167 671.614 145.132 671.614 144.088C671.614 143.043 671.816 142.008 672.208 141.043C672.601 140.078 673.176 139.201 673.901 138.463C674.627 137.725 675.488 137.139 676.435 136.74C677.382 136.341 678.398 136.137 679.423 136.138L810.181 136.138C812.249 136.138 814.233 136.975 815.696 138.466C817.158 139.957 817.98 141.979 817.98 144.087C817.98 146.196 817.158 148.218 815.696 149.709C814.233 151.2 812.249 152.037 810.181 152.037Z" fill="#E6E6E6"/>
<path d="M777.865 254.94L532.327 254.941C530.26 254.938 528.279 254.099 526.818 252.609C525.358 251.118 524.537 249.098 524.537 246.991C524.537 244.884 525.358 242.864 526.818 241.373C528.279 239.883 530.26 239.044 532.327 239.041L777.865 239.041C779.934 239.041 781.917 239.879 783.38 241.37C784.843 242.86 785.664 244.882 785.664 246.991C785.664 249.099 784.843 251.121 783.38 252.612C781.917 254.103 779.934 254.94 777.865 254.94V254.94Z" fill="#E6E6E6"/>
<path d="M810.037 281.77L532.327 281.77C531.302 281.772 530.287 281.567 529.339 281.168C528.392 280.769 527.531 280.184 526.806 279.445C526.081 278.707 525.505 277.83 525.113 276.865C524.72 275.9 524.518 274.866 524.518 273.821C524.518 272.776 524.72 271.741 525.113 270.776C525.505 269.811 526.081 268.934 526.806 268.196C527.531 267.458 528.392 266.872 529.339 266.473C530.287 266.075 531.302 265.87 532.327 265.871L810.037 265.871C812.106 265.871 814.09 266.709 815.552 268.199C817.015 269.69 817.837 271.712 817.837 273.821C817.837 275.929 817.015 277.951 815.552 279.442C814.09 280.933 812.106 281.77 810.037 281.77V281.77Z" fill="#E6E6E6"/>
<path d="M777.865 343.435L532.327 343.435C530.26 343.433 528.279 342.594 526.818 341.104C525.358 339.613 524.537 337.593 524.537 335.486C524.537 333.379 525.358 331.359 526.818 329.868C528.279 328.378 530.26 327.539 532.327 327.536L777.865 327.536C779.934 327.536 781.918 328.374 783.38 329.864C784.843 331.355 785.665 333.377 785.665 335.486C785.665 337.594 784.843 339.616 783.38 341.107C781.918 342.598 779.934 343.435 777.865 343.435Z" fill="#E6E6E6"/>
<path d="M810.037 370.265L532.327 370.265C531.302 370.266 530.287 370.062 529.339 369.663C528.392 369.264 527.531 368.679 526.806 367.94C526.081 367.202 525.505 366.325 525.113 365.36C524.72 364.395 524.518 363.36 524.518 362.316C524.518 361.271 524.72 360.236 525.113 359.271C525.505 358.306 526.081 357.429 526.806 356.691C527.531 355.953 528.392 355.367 529.339 354.968C530.287 354.569 531.302 354.365 532.327 354.366L810.037 354.366C812.106 354.366 814.09 355.203 815.552 356.694C817.015 358.185 817.837 360.207 817.837 362.315C817.837 364.424 817.015 366.446 815.552 367.937C814.09 369.427 812.106 370.265 810.037 370.265V370.265Z" fill="#E6E6E6"/>
<path d="M777.865 431.93L532.327 431.93C530.259 431.93 528.275 431.093 526.812 429.602C525.35 428.111 524.528 426.089 524.528 423.981C524.528 421.872 525.35 419.85 526.812 418.36C528.275 416.869 530.259 416.031 532.327 416.031L777.865 416.031C779.934 416.031 781.918 416.868 783.38 418.359C784.843 419.85 785.665 421.872 785.665 423.981C785.665 426.089 784.843 428.111 783.38 429.602C781.918 431.093 779.934 431.93 777.865 431.93V431.93Z" fill="#E6E6E6"/>
<path d="M810.037 458.76L532.327 458.76C530.259 458.76 528.275 457.922 526.812 456.432C525.35 454.941 524.528 452.919 524.528 450.81C524.528 448.702 525.35 446.68 526.812 445.189C528.275 443.698 530.259 442.861 532.327 442.861L810.037 442.861C812.106 442.861 814.09 443.698 815.552 445.189C817.015 446.68 817.837 448.702 817.837 450.81C817.837 452.919 817.015 454.941 815.552 456.431C814.09 457.922 812.106 458.76 810.037 458.76V458.76Z" fill="#E6E6E6"/>
<path d="M635.246 723.128H286.843C282.456 723.123 278.251 721.345 275.149 718.183C272.048 715.022 270.303 710.736 270.298 706.265V224.18C270.303 219.709 272.048 215.423 275.149 212.261C278.251 209.1 282.456 207.322 286.843 207.317H635.246C639.632 207.322 643.837 209.1 646.939 212.261C650.041 215.423 651.785 219.709 651.79 224.18V706.265C651.785 710.736 650.041 715.022 646.939 718.183C643.837 721.345 639.632 723.123 635.246 723.128V723.128Z" fill="white"/>
<path d="M315.9 331.425C315.889 340.106 317.564 348.703 320.83 356.721C324.095 364.739 328.885 372.019 334.925 378.14C335.431 378.649 335.949 379.159 336.472 379.657C339.626 382.66 343.067 385.334 346.743 387.638C347.449 388.081 348.155 388.507 348.879 388.921C352.597 391.057 356.514 392.81 360.573 394.155C361.273 394.389 361.985 394.611 362.697 394.815C375.599 398.586 389.331 398.193 402.005 393.688C402.252 393.598 402.499 393.508 402.74 393.418C413.866 389.292 423.668 382.135 431.08 372.725C438.492 363.315 443.229 352.012 444.776 340.049C446.323 328.085 444.62 315.918 439.853 304.872C435.086 293.826 427.438 284.324 417.74 277.402C408.043 270.479 396.669 266.401 384.855 265.61C373.041 264.82 361.241 267.347 350.739 272.918C340.237 278.489 331.436 286.89 325.293 297.206C319.15 307.522 315.901 319.357 315.9 331.425V331.425Z" fill="white"/>
<path d="M366.944 363.753C366.976 368.863 365.128 373.799 361.765 377.589C358.438 381.311 353.485 383.779 348.486 382.758C343.883 381.818 340.143 377.717 340.61 372.757C340.687 371.682 340.994 370.638 341.508 369.697C342.022 368.756 342.731 367.94 343.586 367.306C344.441 366.673 345.421 366.237 346.458 366.03C347.495 365.822 348.564 365.848 349.591 366.104C353.963 367.261 355.705 373.684 352.062 376.699C351.187 377.422 349.931 376.157 350.814 375.427C351.358 374.919 351.769 374.281 352.008 373.57C352.248 372.86 352.308 372.099 352.185 371.358C352.061 370.617 351.757 369.92 351.3 369.33C350.844 368.739 350.249 368.275 349.571 367.98C348.771 367.719 347.923 367.647 347.092 367.769C346.26 367.892 345.467 368.205 344.772 368.686C344.077 369.167 343.498 369.803 343.08 370.545C342.661 371.288 342.414 372.118 342.357 372.972C342.068 377.154 345.211 380.303 349.066 381.045C353.235 381.847 357.369 379.672 360.195 376.669C363.433 373.183 365.219 368.553 365.18 363.753C365.187 363.519 365.284 363.298 365.448 363.136C365.613 362.974 365.833 362.883 366.062 362.883C366.291 362.883 366.511 362.974 366.676 363.136C366.84 363.298 366.937 363.519 366.944 363.753V363.753Z" fill="#2F2E41"/>
<path d="M384.177 375.188C401.565 375.188 415.661 360.821 415.661 343.098C415.661 325.375 401.565 311.007 384.177 311.007C366.789 311.007 352.693 325.375 352.693 343.098C352.693 360.821 366.789 375.188 384.177 375.188Z" fill="#536DFE"/>
<path d="M382.566 356.79L382.534 355.591C384.722 355.529 386.652 355.389 388.102 354.309C388.513 353.986 388.851 353.576 389.093 353.107C389.334 352.639 389.474 352.123 389.503 351.594C389.528 351.271 389.48 350.946 389.363 350.645C389.245 350.344 389.061 350.075 388.825 349.858C388.277 349.52 387.65 349.338 387.009 349.332C386.368 349.327 385.738 349.497 385.185 349.826L384.211 350.281L386.078 336.376L387.244 336.538L385.656 348.366C386.306 348.121 387.006 348.045 387.692 348.145C388.378 348.246 389.029 348.52 389.584 348.943C389.958 349.275 390.251 349.691 390.441 350.159C390.631 350.626 390.712 351.132 390.679 351.636C390.644 352.346 390.458 353.04 390.133 353.669C389.808 354.298 389.351 354.847 388.796 355.278C386.933 356.665 384.512 356.735 382.566 356.79Z" fill="#2F2E41"/>
<path d="M399.345 337.558H393.008V338.758H399.345V337.558Z" fill="#2F2E41"/>
<path d="M379.343 337.558H373.007V338.758H379.343V337.558Z" fill="#2F2E41"/>
<path d="M362.697 394.815C375.599 398.586 389.331 398.193 402.005 393.688C402.252 393.598 402.499 393.508 402.74 393.418C399.754 391.07 396.376 389.29 392.769 388.165C393.024 387.243 393.02 386.267 392.757 385.347C392.4 384.181 391.684 383.164 390.714 382.447C389.744 381.729 388.573 381.35 387.375 381.366H379.704C378.508 381.349 377.338 381.727 376.37 382.444C375.402 383.16 374.688 384.177 374.333 385.341C374.07 386.263 374.066 387.241 374.321 388.165C371.144 389.157 368.142 390.656 365.427 392.608C364.879 392.998 364.35 393.406 363.838 393.831C363.45 394.149 363.068 394.479 362.697 394.815Z" fill="#2F2E41"/>
<path d="M408.841 339.693C408.841 345.102 411.453 349.587 414.847 350.366C415.193 350.445 415.546 350.485 415.9 350.486C419.789 350.486 422.959 345.647 422.959 339.693C423.047 336.624 422.086 333.619 420.241 331.191C419.668 330.483 418.962 329.898 418.165 329.47C417.466 329.098 416.689 328.903 415.9 328.9C414.817 328.914 413.765 329.275 412.894 329.932C410.5 331.659 408.841 335.382 408.841 339.693Z" fill="#3F3D56"/>
<path d="M345.896 339.693C345.896 344.346 347.826 348.316 350.532 349.833C351.272 350.256 352.106 350.481 352.955 350.486C353.144 350.486 353.333 350.474 353.52 350.45C357.144 350.012 360.015 345.36 360.015 339.693C360.015 335.154 358.173 331.263 355.573 329.674C354.787 329.176 353.881 328.909 352.955 328.9C352.167 328.903 351.39 329.098 350.691 329.47C349.891 329.9 349.184 330.487 348.608 331.197C346.768 333.625 345.81 336.627 345.896 339.693V339.693Z" fill="#3F3D56"/>
<path d="M350.972 348.798C351.112 348.798 351.25 348.764 351.375 348.698C351.499 348.633 351.607 348.539 351.689 348.423C351.77 348.307 351.824 348.173 351.844 348.031C351.865 347.89 351.853 347.746 351.808 347.611C350.122 342.499 349.614 337.06 350.326 331.716C351.037 326.372 352.948 321.267 355.909 316.798C358.871 312.329 362.803 308.616 367.402 305.948C372 303.28 377.14 301.728 382.422 301.414C387.704 301.1 392.986 302.032 397.857 304.137C402.729 306.241 407.058 309.463 410.51 313.551C413.961 317.638 416.441 322.482 417.757 327.706C419.074 332.929 419.19 338.391 418.098 343.668C418.051 343.902 418.096 344.145 418.223 344.344C418.351 344.544 418.551 344.683 418.78 344.732C419.009 344.782 419.247 344.736 419.443 344.606C419.639 344.477 419.777 344.273 419.825 344.04C420.974 338.492 420.852 332.748 419.469 327.256C418.085 321.764 415.478 316.671 411.849 312.373C408.221 308.075 403.669 304.688 398.547 302.475C393.425 300.261 387.871 299.282 382.318 299.612C376.764 299.943 371.36 301.574 366.526 304.38C361.691 307.185 357.557 311.089 354.443 315.788C351.33 320.487 349.322 325.855 348.575 331.474C347.828 337.093 348.362 342.811 350.136 348.186C350.195 348.364 350.307 348.519 350.457 348.629C350.607 348.739 350.787 348.798 350.972 348.798V348.798Z" fill="#3F3D56"/>
<path d="M399.993 322.306C400.515 323.175 400.732 324.2 400.608 325.211C400.485 326.223 400.027 327.161 399.311 327.873C397.602 329.819 394.877 329.942 392.51 329.581C389.854 329.176 387.038 327.908 384.349 328.762C382.057 329.491 380.423 331.609 378.042 332.141C375.931 332.613 373.406 331.988 372.666 329.695C372.31 328.592 374.014 328.12 374.368 329.216C374.846 330.7 376.914 330.671 378.098 330.26C379.996 329.601 381.459 327.999 383.325 327.233C385.549 326.531 387.931 326.538 390.151 327.252C392.262 327.737 394.691 328.455 396.794 327.55C398.35 326.881 399.588 324.771 398.469 323.214C397.797 322.279 399.328 321.381 399.993 322.306V322.306Z" fill="#2F2E41"/>
<path d="M380.61 399.18C374.385 399.185 368.19 398.297 362.208 396.543C361.505 396.342 360.766 396.112 360.024 395.865C355.856 394.482 351.832 392.681 348.013 390.488C347.297 390.079 346.577 389.647 345.817 389.169C342.041 386.801 338.507 384.055 335.267 380.971C334.732 380.463 334.203 379.941 333.685 379.42C323.496 369.065 316.878 355.62 314.826 341.104C312.774 326.589 315.399 311.786 322.306 298.921C329.212 286.055 340.028 275.822 353.129 269.757C366.229 263.693 380.907 262.125 394.956 265.289C409.006 268.453 421.669 276.178 431.043 287.305C440.416 298.431 445.995 312.357 446.941 326.991C447.886 341.625 444.147 356.176 436.286 368.459C428.424 380.742 416.865 390.094 403.344 395.108C403.101 395.199 402.85 395.29 402.599 395.381C395.532 397.904 388.097 399.188 380.61 399.18V399.18ZM380.61 267.267C368.152 267.268 355.974 271.036 345.619 278.095C335.263 285.154 327.196 295.186 322.438 306.922C317.679 318.657 316.444 331.567 318.889 344.018C321.334 356.469 327.348 367.901 336.171 376.866C336.659 377.358 337.165 377.855 337.676 378.342C340.744 381.262 344.092 383.863 347.668 386.105C348.388 386.558 349.066 386.965 349.742 387.352C353.359 389.429 357.17 391.135 361.118 392.444C361.817 392.678 362.507 392.892 363.174 393.083C375.728 396.755 389.089 396.373 401.422 391.99L402.135 391.728C416.042 386.568 427.72 376.58 435.12 363.516C442.52 350.453 445.168 335.149 442.599 320.294C440.029 305.438 432.408 291.98 421.071 282.283C409.735 272.586 395.409 267.269 380.61 267.267L380.61 267.267Z" fill="#CCCCCC"/>
<path d="M635.246 723.128H286.843C282.456 723.123 278.251 721.345 275.149 718.183C272.048 715.022 270.303 710.736 270.298 706.265V224.18C270.303 219.709 272.048 215.423 275.149 212.261C278.251 209.1 282.456 207.322 286.843 207.317H635.246C639.632 207.322 643.837 209.1 646.939 212.261C650.041 215.423 651.785 219.709 651.79 224.18V706.265C651.785 710.736 650.041 715.022 646.939 718.183C643.837 721.345 639.632 723.123 635.246 723.128V723.128ZM286.843 209.3C282.972 209.305 279.262 210.874 276.525 213.663C273.788 216.453 272.249 220.235 272.245 224.18V706.265C272.249 710.21 273.788 713.992 276.525 716.781C279.262 719.571 282.972 721.14 286.843 721.144H635.246C639.116 721.14 642.827 719.571 645.563 716.781C648.3 713.992 649.839 710.21 649.844 706.265V224.18C649.839 220.235 648.3 216.453 645.563 213.663C642.827 210.874 639.116 209.305 635.246 209.3H286.843Z" fill="#3F3D56"/>
<path d="M567.799 332.524H469.213C467.144 332.524 465.161 331.686 463.698 330.196C462.235 328.705 461.414 326.683 461.414 324.574C461.414 322.466 462.235 320.444 463.698 318.953C465.161 317.462 467.144 316.625 469.213 316.625H567.799C569.867 316.625 571.851 317.462 573.314 318.953C574.777 320.444 575.598 322.466 575.598 324.574C575.598 326.683 574.777 328.705 573.314 330.196C571.851 331.686 569.867 332.524 567.799 332.524V332.524Z" fill="#536DFE"/>
<path d="M599.971 359.354H469.213C467.144 359.354 465.161 358.516 463.698 357.025C462.235 355.534 461.414 353.512 461.414 351.404C461.414 349.296 462.235 347.274 463.698 345.783C465.161 344.292 467.144 343.455 469.213 343.455H599.971C602.04 343.455 604.023 344.292 605.486 345.783C606.949 347.274 607.77 349.296 607.77 351.404C607.77 353.512 606.949 355.534 605.486 357.025C604.023 358.516 602.04 359.354 599.971 359.354V359.354Z" fill="#536DFE"/>
<path d="M567.656 462.257H322.117C320.049 462.257 318.065 461.419 316.602 459.929C315.14 458.438 314.318 456.416 314.318 454.307C314.318 452.199 315.14 450.177 316.602 448.686C318.065 447.195 320.049 446.358 322.117 446.358H567.656C569.724 446.358 571.708 447.195 573.17 448.686C574.633 450.177 575.455 452.199 575.455 454.307C575.455 456.416 574.633 458.438 573.17 459.929C571.708 461.419 569.724 462.257 567.656 462.257V462.257Z" fill="#CCCCCC"/>
<path d="M599.828 489.087H322.117C320.049 489.087 318.065 488.249 316.602 486.758C315.14 485.268 314.318 483.245 314.318 481.137C314.318 479.029 315.14 477.007 316.602 475.516C318.065 474.025 320.049 473.188 322.117 473.188H599.828C601.896 473.188 603.88 474.025 605.342 475.516C606.805 477.007 607.627 479.029 607.627 481.137C607.627 483.245 606.805 485.268 605.342 486.758C603.88 488.249 601.896 489.087 599.828 489.087V489.087Z" fill="#CCCCCC"/>
<path d="M567.656 550.752H322.117C320.05 550.749 318.069 549.91 316.609 548.42C315.148 546.929 314.328 544.909 314.328 542.802C314.328 540.696 315.148 538.675 316.609 537.185C318.069 535.694 320.05 534.855 322.117 534.853H567.656C569.724 534.853 571.708 535.69 573.17 537.181C574.633 538.672 575.455 540.694 575.455 542.802C575.455 544.911 574.633 546.933 573.17 548.423C571.708 549.914 569.724 550.752 567.656 550.752V550.752Z" fill="#CCCCCC"/>
<path d="M599.828 577.582H322.117C320.05 577.579 318.069 576.74 316.609 575.25C315.148 573.759 314.328 571.739 314.328 569.632C314.328 567.525 315.148 565.505 316.609 564.014C318.069 562.524 320.05 561.685 322.117 561.682H599.828C601.896 561.682 603.88 562.52 605.342 564.011C606.805 565.502 607.627 567.524 607.627 569.632C607.627 571.74 606.805 573.762 605.342 575.253C603.88 576.744 601.896 577.582 599.828 577.582Z" fill="#CCCCCC"/>
<path d="M567.656 639.247H322.117C320.049 639.247 318.065 638.409 316.602 636.918C315.14 635.427 314.318 633.405 314.318 631.297C314.318 629.189 315.14 627.167 316.602 625.676C318.065 624.185 320.049 623.348 322.117 623.348H567.656C569.724 623.348 571.708 624.185 573.17 625.676C574.633 627.167 575.455 629.189 575.455 631.297C575.455 633.405 574.633 635.427 573.17 636.918C571.708 638.409 569.724 639.247 567.656 639.247V639.247Z" fill="#CCCCCC"/>
<path d="M599.828 666.076H322.117C320.049 666.076 318.065 665.239 316.602 663.748C315.14 662.257 314.318 660.235 314.318 658.127C314.318 656.019 315.14 653.996 316.602 652.506C318.065 651.015 320.049 650.177 322.117 650.177H599.828C601.896 650.177 603.88 651.015 605.342 652.506C606.805 653.996 607.627 656.019 607.627 658.127C607.627 660.235 606.805 662.257 605.342 663.748C603.88 665.239 601.896 666.076 599.828 666.076V666.076Z" fill="#CCCCCC"/>
<path d="M631.203 613.353C621.105 613.342 611.103 615.359 601.77 619.29C592.438 623.221 583.956 628.988 576.812 636.262C569.667 643.536 563.999 652.175 560.132 661.683C556.265 671.191 554.274 681.383 554.274 691.676C554.274 701.969 556.265 712.161 560.132 721.669C563.999 731.178 569.667 739.816 576.811 747.09C583.956 754.364 592.437 760.132 601.77 764.063C611.103 767.994 621.104 770.011 631.203 770H631.203C651.56 769.963 671.07 761.695 685.452 747.011C699.833 732.326 707.911 712.425 707.911 691.676C707.911 670.928 699.833 651.027 685.452 636.342C671.07 621.658 651.56 613.39 631.203 613.353V613.353Z" fill="#536DFE"/>
<path d="M623.912 724.205C621.889 724.208 619.92 723.541 618.301 722.304L618.201 722.227L597.069 705.751C595.095 704.206 593.804 701.925 593.479 699.409C593.154 696.894 593.822 694.35 595.337 692.336C596.851 690.323 599.088 689.004 601.555 688.671C604.023 688.338 606.52 689.016 608.496 690.558L622.184 701.257L654.528 658.247C655.278 657.25 656.213 656.413 657.281 655.784C658.348 655.156 659.526 654.747 660.748 654.583C661.97 654.418 663.212 654.501 664.403 654.825C665.594 655.15 666.71 655.711 667.689 656.475L667.689 656.475L667.692 656.477L667.491 656.761L667.697 656.477C669.671 658.023 670.962 660.304 671.287 662.82C671.613 665.335 670.946 667.879 669.433 669.894L631.389 720.46C630.509 721.625 629.378 722.568 628.082 723.216C626.787 723.863 625.363 724.197 623.92 724.193L623.912 724.205Z" fill="white"/>
</g>
<defs>
<filter id="filter0_di" x="27" y="0" width="844" height="778" filterUnits="userSpaceOnUse" color-interpolation-filters="sRGB">
<feFlood flood-opacity="0" result="BackgroundImageFix"/>
<feColorMatrix in="SourceAlpha" type="matrix" values="0 0 0 0 0 0 0 0 0 0 0 0 0 0 0 0 0 0 127 0"/>
<feOffset dx="5" dy="4"/>
<feGaussianBlur stdDeviation="2"/>
<feColorMatrix type="matrix" values="0 0 0 0 0 0 0 0 0 0 0 0 0 0 0 0 0 0 0.25 0"/>
<feBlend mode="normal" in2="BackgroundImageFix" result="effect1_dropShadow"/>
<feBlend mode="normal" in="SourceGraphic" in2="effect1_dropShadow" result="shape"/>
<feColorMatrix in="SourceAlpha" type="matrix" values="0 0 0 0 0 0 0 0 0 0 0 0 0 0 0 0 0 0 127 0" result="hardAlpha"/>
<feOffset dx="5" dy="4"/>
<feGaussianBlur stdDeviation="2"/>
<feComposite in2="hardAlpha" operator="arithmetic" k2="-1" k3="1"/>
<feColorMatrix type="matrix" values="0 0 0 0 0 0 0 0 0 0 0 0 0 0 0 0 0 0 0.25 0"/>
<feBlend mode="normal" in2="shape" result="effect2_innerShadow"/>
</filter>
<clipPath id="clip0">
<rect width="835" height="770" fill="white" transform="translate(27)"/>
</clipPath>
</defs>
</svg>
